<svg width="924" height="277" viewBox="0 0 924 277" fill="none" xmlns="http://www.w3.org/2000/svg">
<path d="M138.427 0C61.9774 0 0 61.9757 0 138.425C0 214.878 61.9774 276.849 138.427 276.849C214.884 276.849 276.855 214.878 276.855 138.425C276.855 61.9807 214.884 0.00661198 138.425 0.00661198L138.427 0ZM201.908 199.649C201.318 200.617 200.542 201.459 199.625 202.126C198.709 202.794 197.67 203.275 196.567 203.54C195.465 203.806 194.321 203.851 193.201 203.674C192.081 203.497 191.007 203.101 190.04 202.508C157.539 182.656 116.624 178.16 68.4389 189.169C66.2078 189.676 63.8664 189.277 61.9295 188.059C59.9926 186.841 58.6185 184.903 58.1094 182.672C57.8558 181.568 57.8226 180.424 58.0116 179.307C58.2006 178.189 58.6082 177.12 59.2111 176.161C59.8139 175.201 60.6001 174.37 61.5246 173.714C62.4492 173.059 63.4939 172.592 64.599 172.341C117.33 160.294 162.56 165.481 199.049 187.78C203.115 190.276 204.404 195.582 201.908 199.649ZM218.852 161.957C215.727 167.035 209.082 168.639 204.008 165.514C166.799 142.644 110.08 136.02 66.0686 149.379C60.3608 151.104 54.3323 147.887 52.5999 142.189C51.7733 139.45 52.0668 136.494 53.416 133.971C54.7652 131.448 57.0599 129.562 59.7971 128.729C110.07 113.475 172.568 120.864 215.298 147.121C220.372 150.246 221.976 156.889 218.852 161.957ZM220.306 122.708C175.692 96.2092 102.084 93.7727 59.488 106.701C52.6479 108.775 45.4144 104.914 43.3415 98.0738C42.3448 94.7876 42.694 91.24 44.3124 88.2112C45.9308 85.1824 48.6859 82.9203 51.9718 81.9224C100.869 67.0785 182.155 69.9465 233.52 100.439C234.984 101.305 236.263 102.452 237.283 103.813C238.303 105.173 239.045 106.722 239.466 108.37C239.886 110.018 239.978 111.733 239.735 113.417C239.492 115.1 238.919 116.719 238.049 118.181C234.413 124.333 226.445 126.362 220.313 122.708H220.306ZM376.613 127.786C352.711 122.087 348.463 118.087 348.463 109.681C348.463 101.74 355.934 96.396 367.059 96.396C377.837 96.396 388.515 100.454 399.722 108.808C400.053 109.061 400.483 109.162 400.896 109.096C401.104 109.066 401.303 108.994 401.482 108.884C401.661 108.775 401.816 108.63 401.937 108.458L413.607 92.0073C413.838 91.6812 413.935 91.2794 413.88 90.8839C413.825 90.4884 413.621 90.1288 413.31 89.8783C399.97 79.1784 384.961 73.9765 367.406 73.9765C341.603 73.9765 323.569 89.4634 323.569 111.622C323.569 135.384 339.123 143.797 366.001 150.292C388.862 155.56 392.73 159.974 392.73 167.862C392.73 176.606 384.928 182.044 372.365 182.044C358.414 182.044 347.025 177.333 334.297 166.324C333.979 166.056 333.571 165.92 333.156 165.944C332.726 165.977 332.346 166.176 332.082 166.49L318.99 182.061C318.445 182.722 318.511 183.681 319.139 184.243C333.95 197.467 352.166 204.442 371.836 204.442C399.64 204.442 417.608 189.251 417.608 165.729C417.657 145.882 405.772 134.889 376.663 127.808L376.613 127.786ZM480.521 104.215C468.47 104.215 458.585 108.962 450.42 118.69V107.741C450.421 107.327 450.259 106.929 449.967 106.635C449.676 106.34 449.28 106.174 448.866 106.172H427.459C426.6 106.172 425.906 106.876 425.906 107.741V229.403C425.906 230.262 426.6 230.973 427.459 230.973H448.866C449.725 230.973 450.42 230.262 450.42 229.403V191.004C458.585 200.145 468.47 204.624 480.521 204.624C502.919 204.624 525.598 187.383 525.598 154.424C525.631 121.459 502.952 104.213 480.537 104.213L480.521 104.215ZM500.704 154.424C500.704 171.201 490.372 182.92 475.562 182.92C460.933 182.92 449.891 170.672 449.891 154.424C449.891 138.175 460.933 125.93 475.562 125.93C490.124 125.928 500.704 137.911 500.704 154.424ZM583.701 104.215C554.856 104.215 532.259 126.424 532.259 154.783C532.259 182.838 554.707 204.806 583.353 204.806C612.297 204.806 634.96 182.672 634.96 154.424C634.96 126.272 612.446 104.218 583.701 104.218V104.215ZM583.701 183.086C568.361 183.086 556.79 170.754 556.79 154.416C556.79 138.004 567.964 126.094 583.353 126.094C598.792 126.094 610.429 138.42 610.429 154.775C610.429 171.184 599.189 183.086 583.701 183.086ZM696.55 106.172H672.995V82.0943C672.996 81.8894 672.957 81.6863 672.879 81.4967C672.801 81.307 672.687 81.1345 672.543 80.989C672.399 80.8435 672.227 80.7278 672.038 80.6486C671.849 80.5694 671.646 80.5281 671.441 80.5273H650.035C649.176 80.5273 648.465 81.2315 648.465 82.0943V106.172H638.183C637.324 106.172 636.629 106.876 636.629 107.741V126.133C636.629 126.996 637.324 127.702 638.183 127.702H648.465V175.3C648.465 194.524 658.036 204.277 676.929 204.277C684.599 204.277 690.963 202.69 696.964 199.285C697.46 199.021 697.757 198.492 697.757 197.93V180.408C697.757 179.879 697.476 179.366 697.013 179.085C696.788 178.941 696.529 178.86 696.262 178.848C695.995 178.836 695.729 178.895 695.493 179.019C691.377 181.086 687.393 182.044 682.93 182.044C676.07 182.044 672.995 178.92 672.995 171.944V127.71H696.55C697.41 127.71 698.104 127.006 698.104 126.142V107.75C698.111 107.545 698.076 107.341 698.002 107.149C697.928 106.958 697.815 106.784 697.672 106.637C697.528 106.49 697.356 106.374 697.166 106.296C696.976 106.218 696.772 106.179 696.567 106.182L696.55 106.172ZM778.605 106.266V103.309C778.605 94.6091 781.944 90.7296 789.416 90.7296C793.879 90.7296 797.466 91.6156 801.483 92.9545C801.979 93.1099 802.491 93.0322 802.888 92.7363C803.089 92.5911 803.253 92.3997 803.365 92.1783C803.477 91.9568 803.534 91.7117 803.532 91.4635V73.4293C803.536 73.0925 803.43 72.7636 803.23 72.4925C803.03 72.2213 802.748 72.0227 802.425 71.9268C798.193 70.6655 792.771 69.3712 784.639 69.3712C764.885 69.3712 754.422 80.5025 754.422 101.55V106.079H744.14C743.281 106.079 742.57 106.783 742.57 107.646V126.133C742.57 126.996 743.281 127.702 744.14 127.702H754.422V201.103C754.422 201.979 755.133 202.674 755.992 202.674H777.382C778.258 202.674 778.952 201.979 778.952 201.103V127.707H798.937L829.55 201.103C826.079 208.806 822.657 210.344 817.996 210.344C814.227 210.344 810.244 209.22 806.194 206.988C805.81 206.794 805.367 206.753 804.954 206.872C804.541 207.021 804.194 207.319 804.028 207.715L796.772 223.634C796.424 224.394 796.722 225.27 797.449 225.667C805.02 229.766 811.847 231.518 820.294 231.518C836.096 231.518 844.841 224.146 852.527 204.343L889.653 108.408C889.75 108.171 889.785 107.914 889.757 107.659C889.728 107.405 889.635 107.162 889.488 106.952C889.348 106.742 889.159 106.571 888.937 106.452C888.715 106.333 888.467 106.271 888.215 106.271H865.933C865.255 106.271 864.66 106.696 864.445 107.322L841.617 172.507L816.624 107.279C816.512 106.984 816.313 106.729 816.054 106.549C815.794 106.369 815.485 106.272 815.169 106.271H778.605V106.266ZM731.032 106.172H709.626C708.766 106.172 708.055 106.876 708.055 107.741V201.103C708.055 201.979 708.766 202.674 709.626 202.674H731.032C731.892 202.674 732.602 201.979 732.602 201.103V107.747C732.603 107.541 732.562 107.337 732.484 107.146C732.405 106.955 732.289 106.782 732.143 106.636C731.997 106.491 731.824 106.375 731.633 106.297C731.443 106.218 731.238 106.178 731.032 106.178V106.172ZM720.453 63.6585C711.973 63.6585 705.096 70.5217 705.096 78.9999C705.096 81.0165 705.494 83.0133 706.265 84.8763C707.037 86.7393 708.168 88.4321 709.594 89.8579C711.02 91.2837 712.713 92.4147 714.576 93.1863C716.439 93.9578 718.436 94.3548 720.453 94.3546C728.933 94.3546 735.793 87.4831 735.793 78.9999C735.793 70.5234 728.916 63.6585 720.453 63.6585ZM907.935 136.192C899.472 136.192 892.877 129.39 892.877 121.13C892.877 112.87 899.555 105.99 908.018 105.99C916.481 105.99 923.077 112.79 923.077 121.044C923.077 129.304 916.399 136.192 907.935 136.192ZM908.018 107.488C900.299 107.488 894.464 113.62 894.464 121.13C894.464 128.636 900.266 134.686 907.935 134.686C915.655 134.686 921.49 128.558 921.49 121.044C921.49 113.538 915.688 107.488 908.018 107.488ZM911.357 122.593L915.622 128.557H912.018L908.183 123.085H904.894V128.557H901.885V112.747H908.927C912.613 112.747 915.027 114.627 915.027 117.791C915.043 120.383 913.539 121.966 911.374 122.593H911.357ZM908.812 115.46H904.894V120.46H908.812C910.762 120.46 911.936 119.503 911.936 117.958C911.936 116.331 910.762 115.46 908.812 115.46Z" fill="#1ED760"/>
</svg>
