<svg width="1200" height="800" viewBox="0 0 1200 800" fill="none" xmlns="http://www.w3.org/2000/svg">
<path d="M426.53 329.254C423.138 316.656 413.204 306.722 400.606 303.33C377.59 297.031 285.524 297.031 285.524 297.031C285.524 297.031 193.459 297.031 170.443 303.088C158.086 306.48 147.911 316.656 144.519 329.254C138.462 352.27 138.462 399.999 138.462 399.999C138.462 399.999 138.462 447.97 144.519 470.744C147.911 483.343 157.844 493.276 170.443 496.668C193.701 502.967 285.524 502.967 285.524 502.967C285.524 502.967 377.59 502.967 400.606 496.91C413.204 493.518 423.138 483.585 426.53 470.986C432.587 447.97 432.587 400.241 432.587 400.241C432.587 400.241 432.829 352.27 426.53 329.254Z" fill="#FF0000"/>
<path d="M256.209 355.904V444.093L332.769 399.999L256.209 355.904Z" fill="white"/>
<path d="M565.597 484.555C559.782 480.679 555.663 474.622 553.241 466.142C550.818 457.905 549.606 446.76 549.606 433.192V414.537C549.606 400.727 551.06 389.582 553.725 381.103C556.632 372.623 560.993 366.566 566.808 362.69C572.865 358.813 580.618 356.875 590.309 356.875C599.758 356.875 607.511 358.813 613.325 362.69C619.14 366.566 623.259 372.865 625.924 381.103C628.589 389.34 630.043 400.485 630.043 414.537V433.192C630.043 447.002 628.831 457.905 626.166 466.384C623.501 474.622 619.382 480.921 613.568 484.797C607.753 488.674 599.758 490.612 589.825 490.612C579.649 490.37 571.411 488.432 565.597 484.555ZM598.304 464.204C600 460.085 600.727 453.059 600.727 443.61V403.392C600.727 394.186 600 387.402 598.304 383.041C596.608 378.68 593.943 376.742 589.825 376.742C585.948 376.742 583.041 378.922 581.587 383.041C579.891 387.402 579.164 394.186 579.164 403.392V443.61C579.164 453.059 579.891 460.085 581.587 464.204C583.041 468.323 585.948 470.503 590.067 470.503C593.943 470.503 596.608 468.565 598.304 464.204Z" fill="white"/>
<path d="M1012.84 433.435V439.976C1012.84 448.214 1013.08 454.513 1013.57 458.632C1014.05 462.75 1015.02 465.9 1016.72 467.596C1018.17 469.534 1020.59 470.503 1023.99 470.503C1028.35 470.503 1031.25 468.807 1032.95 465.415C1034.65 462.024 1035.37 456.451 1035.62 448.456L1060.57 449.91C1060.81 451.121 1060.81 452.575 1060.81 454.513C1060.81 466.385 1057.66 475.349 1051.12 481.163C1044.58 486.978 1035.37 489.885 1023.5 489.885C1009.21 489.885 999.274 485.282 993.459 476.318C987.645 467.354 984.737 453.544 984.737 434.646V412.114C984.737 392.732 987.645 378.68 993.702 369.716C999.759 360.752 1009.93 356.391 1024.23 356.391C1034.16 356.391 1041.91 358.329 1047.24 361.963C1052.58 365.597 1056.21 371.412 1058.39 378.922C1060.57 386.675 1061.54 397.336 1061.54 410.903V432.95H1012.84V433.435ZM1016.48 379.165C1015.02 381.103 1014.05 384.01 1013.57 388.129C1013.08 392.248 1012.84 398.547 1012.84 407.027V416.233H1034.16V407.027C1034.16 398.789 1033.92 392.49 1033.44 388.129C1032.95 383.768 1031.74 380.861 1030.29 379.165C1028.83 377.469 1026.41 376.5 1023.5 376.5C1020.11 376.257 1017.93 377.226 1016.48 379.165Z" fill="white"/>
<path d="M494.852 431.011L461.902 311.568H490.733L502.363 365.596C505.27 378.921 507.45 390.309 508.904 399.757H509.631C510.6 392.974 512.781 381.829 516.172 365.838L528.286 311.568H557.117L523.683 431.011V488.189H495.094V431.011H494.852Z" fill="white"/>
<path d="M723.805 359.297V488.431H701.031L698.608 472.683H697.881C691.824 484.554 682.375 490.611 670.019 490.611C661.539 490.611 655.24 487.704 651.121 482.132C647.003 476.559 645.064 467.837 645.064 455.723V359.297H674.138V454.027C674.138 459.842 674.865 463.961 676.076 466.383C677.287 468.806 679.468 470.018 682.375 470.018C684.798 470.018 687.221 469.291 689.643 467.595C692.066 466.141 693.762 464.203 694.731 461.78V359.297H723.805Z" fill="white"/>
<path d="M872.805 359.297V488.431H850.031L847.608 472.683H846.881C840.824 484.554 831.375 490.611 819.019 490.611C810.539 490.611 804.24 487.704 800.121 482.132C796.003 476.559 794.064 467.837 794.064 455.723V359.297H823.138V454.027C823.138 459.842 823.865 463.961 825.076 466.383C826.287 468.806 828.468 470.018 831.375 470.018C833.798 470.018 836.221 469.291 838.643 467.595C841.066 466.141 842.762 464.203 843.731 461.78V359.297H872.805Z" fill="white"/>
<path d="M802.787 335.069H773.956V488.189H745.609V335.069H716.778V311.568H802.787V335.069Z" fill="white"/>
<path d="M968.989 379.891C967.293 371.654 964.386 365.839 960.509 362.205C956.633 358.571 951.061 356.632 944.277 356.632C938.947 356.632 933.859 358.086 929.256 361.236C924.652 364.143 921.018 368.262 918.596 373.107H918.353V305.027H890.249V488.189H914.235L917.142 476.075H917.869C920.049 480.436 923.441 483.828 928.044 486.493C932.648 488.916 937.493 490.37 943.066 490.37C952.999 490.37 960.025 485.766 964.628 476.802C969.231 467.838 971.654 453.543 971.654 434.403V414.052C971.412 399.273 970.685 387.886 968.989 379.891ZM942.339 432.465C942.339 441.914 941.854 449.182 941.127 454.513C940.4 459.843 938.947 463.719 937.251 465.9C935.313 468.08 932.89 469.291 929.983 469.291C927.56 469.291 925.379 468.807 923.441 467.595C921.503 466.384 919.807 464.688 918.596 462.508V389.34C919.565 385.948 921.261 383.041 923.683 380.618C926.106 378.437 928.771 377.226 931.436 377.226C934.344 377.226 936.766 378.437 938.22 380.618C939.916 383.041 940.885 386.917 941.612 392.247C942.339 397.82 942.581 405.572 942.581 415.506V432.465H942.339Z" fill="white"/>
</svg>
