<svg width="1191" height="353" viewBox="0 0 1191 353" fill="none" xmlns="http://www.w3.org/2000/svg">
<path d="M426.068 105.754C422.676 93.1557 412.743 83.2223 400.144 79.8305C377.128 73.5312 285.062 73.5312 285.062 73.5312C285.062 73.5312 192.997 73.5312 169.981 79.5882C157.624 82.9801 147.449 93.1557 144.057 105.754C138 128.77 138 176.499 138 176.499C138 176.499 138 224.47 144.057 247.244C147.449 259.843 157.382 269.776 169.981 273.168C193.239 279.467 285.062 279.467 285.062 279.467C285.062 279.467 377.128 279.467 400.144 273.41C412.743 270.018 422.676 260.085 426.068 247.486C432.125 224.47 432.125 176.741 432.125 176.741C432.125 176.741 432.367 128.77 426.068 105.754Z" fill="#FF0000"/>
<path d="M255.747 132.404V220.593L332.307 176.499L255.747 132.404Z" fill="white"/>
<path d="M564.822 263.235C559.008 259.358 554.889 253.302 552.466 244.822C550.043 236.584 548.832 225.44 548.832 211.872V193.217C548.832 179.407 550.286 168.262 552.951 159.782C555.858 151.303 560.219 145.246 566.034 141.369C572.091 137.493 579.844 135.555 589.535 135.555C598.983 135.555 606.736 137.493 612.551 141.369C618.366 145.246 622.484 151.545 625.149 159.782C627.814 168.02 629.268 179.165 629.268 193.217V211.872C629.268 225.682 628.057 236.584 625.392 245.064C622.727 253.302 618.608 259.601 612.793 263.477C606.979 267.354 598.983 269.292 589.05 269.292C578.874 269.05 570.637 267.111 564.822 263.235ZM597.53 242.884C599.226 238.765 599.953 231.739 599.953 222.29V182.072C599.953 172.865 599.226 166.082 597.53 161.721C595.834 157.36 593.169 155.421 589.05 155.421C585.174 155.421 582.266 157.602 580.813 161.721C579.117 166.082 578.39 172.865 578.39 182.072V222.29C578.39 231.739 579.117 238.765 580.813 242.884C582.266 247.002 585.174 249.183 589.292 249.183C593.169 249.183 595.834 247.245 597.53 242.884Z" fill="white"/>
<path d="M1012.07 212.115V218.656C1012.07 226.893 1012.31 233.193 1012.79 237.311C1013.28 241.43 1014.25 244.58 1015.94 246.276C1017.4 248.214 1019.82 249.183 1023.21 249.183C1027.57 249.183 1030.48 247.487 1032.17 244.095C1033.87 240.703 1034.6 235.131 1034.84 227.136L1059.79 228.589C1060.04 229.801 1060.04 231.254 1060.04 233.193C1060.04 245.064 1056.89 254.029 1050.35 259.843C1043.8 265.658 1034.6 268.565 1022.73 268.565C1008.43 268.565 998.498 263.962 992.683 254.998C986.868 246.033 983.961 232.224 983.961 213.326V190.794C983.961 171.412 986.868 157.36 992.925 148.396C998.982 139.431 1009.16 135.07 1023.45 135.07C1033.39 135.07 1041.14 137.009 1046.47 140.643C1051.8 144.277 1055.43 150.092 1057.61 157.602C1059.79 165.355 1060.76 176.015 1060.76 189.583V211.63H1012.07V212.115ZM1015.7 157.844C1014.25 159.783 1013.28 162.69 1012.79 166.809C1012.31 170.927 1012.07 177.227 1012.07 185.706V194.913H1033.39V185.706C1033.39 177.469 1033.14 171.17 1032.66 166.809C1032.17 162.448 1030.96 159.54 1029.51 157.844C1028.06 156.148 1025.63 155.179 1022.73 155.179C1019.33 154.937 1017.15 155.906 1015.7 157.844Z" fill="white"/>
<path d="M494.077 209.691L461.127 90.248H489.958L501.587 144.276C504.495 157.601 506.675 168.988 508.129 178.437H508.856C509.825 171.653 512.005 160.508 515.397 144.518L527.511 90.248H556.342L522.908 209.691V266.868H494.319V209.691H494.077Z" fill="white"/>
<path d="M723.029 137.977V267.11H700.255L697.832 251.362H697.106C691.049 263.234 681.6 269.291 669.244 269.291C660.764 269.291 654.465 266.384 650.346 260.811C646.227 255.239 644.289 246.517 644.289 234.403V137.977H673.362V232.707C673.362 238.522 674.089 242.64 675.301 245.063C676.512 247.486 678.692 248.697 681.6 248.697C684.023 248.697 686.445 247.971 688.868 246.275C691.291 244.821 692.987 242.883 693.956 240.46V137.977H723.029Z" fill="white"/>
<path d="M872.029 137.977V267.11H849.255L846.832 251.362H846.106C840.049 263.234 830.6 269.291 818.244 269.291C809.764 269.291 803.465 266.384 799.346 260.811C795.227 255.239 793.289 246.517 793.289 234.403V137.977H822.362V232.707C822.362 238.522 823.089 242.64 824.301 245.063C825.512 247.486 827.692 248.697 830.6 248.697C833.023 248.697 835.445 247.971 837.868 246.275C840.291 244.821 841.987 242.883 842.956 240.46V137.977H872.029Z" fill="white"/>
<path d="M802.01 113.749H773.179V266.868H744.833V113.749H716.002V90.248H802.01V113.749Z" fill="white"/>
<path d="M968.213 158.571C966.517 150.333 963.61 144.519 959.733 140.885C955.857 137.25 950.284 135.312 943.501 135.312C938.17 135.312 933.083 136.766 928.479 139.915C923.876 142.823 920.242 146.941 917.819 151.787H917.577V83.707H889.473V266.869H913.458L916.365 254.755H917.092C919.273 259.116 922.665 262.508 927.268 265.173C931.871 267.596 936.717 269.049 942.289 269.049C952.223 269.049 959.249 264.446 963.852 255.482C968.455 246.517 970.878 232.223 970.878 213.083V192.732C970.636 177.953 969.909 166.566 968.213 158.571ZM941.562 211.145C941.562 220.594 941.078 227.862 940.351 233.192C939.624 238.522 938.17 242.399 936.475 244.579C934.536 246.76 932.114 247.971 929.206 247.971C926.783 247.971 924.603 247.487 922.665 246.275C920.726 245.064 919.031 243.368 917.819 241.187V168.02C918.788 164.628 920.484 161.72 922.907 159.298C925.33 157.117 927.995 155.906 930.66 155.906C933.567 155.906 935.99 157.117 937.444 159.298C939.14 161.72 940.109 165.597 940.835 170.927C941.562 176.499 941.805 184.252 941.805 194.186V211.145H941.562Z" fill="white"/>
</svg>
